<svg xmlns="http://www.w3.org/2000/svg" xmlns:xlink="http://www.w3.org/1999/xlink" width="36" height="36" viewBox="0 0 36 36" fill="none">
<path d="M18.1564 4.18509C18.1564 4.18509 18.0821 4.18509 18.0503 4.18509C18.0185 4.18509 17.9893 4.18509 17.9655 4.18509C10.3621 4.21691 4.21156 10.3913 4.21156 18.0027C4.21156 25.614 10.3621 31.7698 17.9655 31.8096C14.1956 31.7619 11.1468 28.6919 11.1468 24.9061C11.1468 21.1204 14.2407 18.0027 18.0503 18.0027C21.86 18.0027 24.9538 14.9088 24.9538 11.0992C24.9538 7.28954 21.9183 4.25137 18.1564 4.1957L18.1564 4.18509ZM18.0503 14.5456C16.1415 14.5456 14.5933 13.008 14.5933 11.0992C14.5933 9.19038 16.1415 7.64213 18.0503 7.64213C19.9591 7.64213 21.4968 9.19038 21.4968 11.0992C21.4968 13.008 19.9591 14.5456 18.0503 14.5456Z"   fill="#FFFFFF" fill-opacity="0">
</path>
<ellipse cx="18.022496700286865" cy="24.539998054504395" rx="3.2549986839294434" ry="3.255000114440918"   fill="#FFFFFF" fill-opacity="0">
</ellipse>
<path d="M18.1537 4.18509C21.9236 4.24077 24.9538 7.31074 24.9538 11.0886C24.9538 14.8664 21.8599 17.992 18.0503 17.992C14.2407 17.992 11.1468 21.0859 11.1468 24.8955C11.1468 28.7052 14.193 31.7513 17.9628 31.799C17.9946 31.799 18.0264 31.799 18.0503 31.799C18.0821 31.799 18.1219 31.799 18.1537 31.799C25.7253 31.7274 31.8334 25.5716 31.8334 17.9841C31.8334 10.3966 25.7253 4.25667 18.1537 4.18509ZM18.0503 28.387C16.1415 28.387 14.5986 26.8441 14.5986 24.9353C14.5986 23.0265 16.1415 21.4835 18.0503 21.4835C19.9591 21.4835 21.502 23.0265 21.502 24.9353C21.502 26.8441 19.9591 28.387 18.0503 28.387Z"   fill="url(#linear_fill_am73ToteNwaRLWMq5WZcg)" >
</path>
<ellipse cx="18.050329208374023" cy="11.096526145935059" rx="3.4517383575439453" ry="3.451737403869629"   fill="url(#linear_fill_NhOQT5sSisTivbEldBOZv)" >
</ellipse>
<path d="M34.4743 18.0025C34.4743 27.0858 27.1083 34.4518 18.025 34.4518C8.94164 34.4518 1.57566 27.0858 1.57566 18.0025C1.57566 8.91915 8.94164 1.55317 18.025 1.55317C27.1083 1.55317 34.4743 8.91915 34.4743 18.0025Z" stroke="rgba(56, 56, 56, 1)" stroke-width="3"      fill="#CCCCCC" fill-opacity="0">
</path>
<defs>
<linearGradient id="linear_fill_am73ToteNwaRLWMq5WZcg" x1="11.146839141845703" y1="17.999996185302734" x2="31.84134292602539" y2="17.999996185302734" gradientUnits="userSpaceOnUse">
<stop offset="0" stop-color="#383838"  />
<stop offset="1" stop-color="#383838"  />
</linearGradient>
<linearGradient id="linear_fill_NhOQT5sSisTivbEldBOZv" x1="14.598590850830078" y1="11.096526145935059" x2="21.510020880105856" y2="11.096526145935059" gradientUnits="userSpaceOnUse">
<stop offset="0" stop-color="#383838"  />
<stop offset="1" stop-color="#383838"  />
</linearGradient>
</defs>
</svg>
